<svg xmlns="http://www.w3.org/2000/svg" width="320" height="320" viewBox="0 0 320 320">
  <g fill="none" stroke="#4A5D3A" stroke-width="2" stroke-linecap="round" stroke-linejoin="round" opacity="0.07">

    <!-- Tooth / molar -->
    <path d="M38 18 C28 9 12 11 9 26 C6 41 13 56 18 70 C21 78 29 78 31 70 C33 60 36 55 41 55 C46 55 49 60 51 70 C53 78 61 78 64 70 C69 56 76 41 73 26 C70 11 54 9 44 18 C42 20 40 20 38 18 Z"/>

    <!-- DNA double helix -->
    <path d="M230 10 C255 28 205 52 230 70 C255 88 205 112 230 130"/>
    <path d="M256 10 C231 28 281 52 256 70 C231 88 281 112 256 130"/>
    <line x1="234" y1="20" x2="252" y2="20"/>
    <line x1="238" y1="40" x2="248" y2="40"/>
    <line x1="234" y1="60" x2="252" y2="60"/>
    <line x1="238" y1="80" x2="248" y2="80"/>
    <line x1="234" y1="100" x2="252" y2="100"/>
    <line x1="238" y1="120" x2="248" y2="120"/>

    <!-- Benzene ring / molecule -->
    <polygon points="70,200 95,215 95,245 70,260 45,245 45,215"/>
    <circle cx="70" cy="200" r="4"/>
    <circle cx="95" cy="215" r="4"/>
    <circle cx="95" cy="245" r="4"/>
    <circle cx="70" cy="260" r="4"/>
    <circle cx="45" cy="245" r="4"/>
    <circle cx="45" cy="215" r="4"/>
    <line x1="70" y1="260" x2="70" y2="285"/>
    <circle cx="70" cy="291" r="4"/>
    <line x1="45" y1="215" x2="22" y2="200"/>
    <circle cx="16" cy="196" r="4"/>

    <!-- Microscope -->
    <circle cx="245" cy="190" r="9"/>
    <line x1="245" y1="199" x2="245" y2="214"/>
    <path d="M245 214 C245 226 233 230 226 240"/>
    <circle cx="222" cy="246" r="6"/>
    <line x1="205" y1="270" x2="265" y2="270"/>
    <line x1="226" y1="240" x2="245" y2="255"/>
    <line x1="245" y1="255" x2="245" y2="270"/>
    <line x1="230" y1="270" x2="225" y2="282"/>
    <line x1="260" y1="270" x2="255" y2="282"/>

    <!-- Neural network / AI nodes -->
    <circle cx="170" cy="250" r="4.5"/>
    <circle cx="170" cy="275" r="4.5"/>
    <circle cx="170" cy="300" r="4.5"/>
    <circle cx="205" cy="240" r="4.5"/>
    <circle cx="205" cy="265" r="4.5"/>
    <circle cx="205" cy="290" r="4.5"/>
    <circle cx="205" cy="315" r="4.5"/>
    <circle cx="240" cy="265" r="4.5"/>
    <circle cx="240" cy="290" r="4.5"/>
    <line x1="170" y1="250" x2="205" y2="240"/>
    <line x1="170" y1="250" x2="205" y2="265"/>
    <line x1="170" y1="250" x2="205" y2="290"/>
    <line x1="170" y1="275" x2="205" y2="240"/>
    <line x1="170" y1="275" x2="205" y2="265"/>
    <line x1="170" y1="275" x2="205" y2="315"/>
    <line x1="170" y1="300" x2="205" y2="265"/>
    <line x1="170" y1="300" x2="205" y2="290"/>
    <line x1="170" y1="300" x2="205" y2="315"/>
    <line x1="205" y1="240" x2="240" y2="265"/>
    <line x1="205" y1="265" x2="240" y2="265"/>
    <line x1="205" y1="265" x2="240" y2="290"/>
    <line x1="205" y1="290" x2="240" y2="265"/>
    <line x1="205" y1="290" x2="240" y2="290"/>
    <line x1="205" y1="315" x2="240" y2="290"/>

    <!-- Cell / nucleus -->
    <circle cx="280" cy="60" r="20"/>
    <circle cx="280" cy="60" r="8"/>
    <circle cx="270" cy="48" r="2"/>
    <circle cx="292" cy="68" r="2"/>
    <circle cx="288" cy="45" r="2"/>

    <!-- Stethoscope-like curve / pathology slide -->
    <rect x="0" y="100" width="40" height="28" rx="2"/>
    <line x1="6" y1="108" x2="34" y2="108"/>
    <line x1="6" y1="115" x2="34" y2="115"/>
    <line x1="6" y1="122" x2="34" y2="122"/>

  </g>
</svg>
